<?xml version="1.0" encoding="utf-8" standalone="no"?>
<!DOCTYPE svg PUBLIC "-//W3C//DTD SVG 1.1//EN"
  "http://www.w3.org/Graphics/SVG/1.1/DTD/svg11.dtd">
<!-- Created with matplotlib (https://matplotlib.org/) -->
<svg height="277.314375pt" version="1.1" viewBox="0 0 411.23125 277.314375" width="411.23125pt" xmlns="http://www.w3.org/2000/svg" xmlns:xlink="http://www.w3.org/1999/xlink">
 <defs>
  <style type="text/css">
*{stroke-linecap:butt;stroke-linejoin:round;}
  </style>
 </defs>
 <g id="figure_1">
  <g id="patch_1">
   <path d="M -0 277.314375 
L 411.23125 277.314375 
L 411.23125 0 
L -0 0 
z
" style="fill:#ffffff;"/>
  </g>
  <g id="axes_1">
   <g id="patch_2">
    <path d="M 69.23125 239.758125 
L 404.03125 239.758125 
L 404.03125 22.318125 
L 69.23125 22.318125 
z
" style="fill:#ffffff;"/>
   </g>
   <g id="matplotlib.axis_1">
    <g id="xtick_1">
     <g id="line2d_1">
      <path clip-path="url(#p751924af38)" d="M 84.449432 239.758125 
L 84.449432 22.318125 
" style="fill:none;stroke:#b0b0b0;stroke-linecap:square;stroke-width:0.8;"/>
     </g>
     <g id="line2d_2">
      <defs>
       <path d="M 0 0 
L 0 3.5 
" id="m420a00bc39" style="stroke:#000000;stroke-width:0.8;"/>
      </defs>
      <g>
       <use style="stroke:#000000;stroke-width:0.8;" x="84.449432" xlink:href="#m420a00bc39" y="239.758125"/>
      </g>
     </g>
     <g id="text_1">
      <!-- 0.0 -->
      <defs>
       <path d="M 31.78125 66.40625 
Q 24.171875 66.40625 20.328125 58.90625 
Q 16.5 51.421875 16.5 36.375 
Q 16.5 21.390625 20.328125 13.890625 
Q 24.171875 6.390625 31.78125 6.390625 
Q 39.453125 6.390625 43.28125 13.890625 
Q 47.125 21.390625 47.125 36.375 
Q 47.125 51.421875 43.28125 58.90625 
Q 39.453125 66.40625 31.78125 66.40625 
z
M 31.78125 74.21875 
Q 44.046875 74.21875 50.515625 64.515625 
Q 56.984375 54.828125 56.984375 36.375 
Q 56.984375 17.96875 50.515625 8.265625 
Q 44.046875 -1.421875 31.78125 -1.421875 
Q 19.53125 -1.421875 13.0625 8.265625 
Q 6.59375 17.96875 6.59375 36.375 
Q 6.59375 54.828125 13.0625 64.515625 
Q 19.53125 74.21875 31.78125 74.21875 
z
" id="DejaVuSans-48"/>
       <path d="M 10.6875 12.40625 
L 21 12.40625 
L 21 0 
L 10.6875 0 
z
" id="DejaVuSans-46"/>
      </defs>
      <g transform="translate(76.497869 254.356562)scale(0.1 -0.1)">
       <use xlink:href="#DejaVuSans-48"/>
       <use x="63.623047" xlink:href="#DejaVuSans-46"/>
       <use x="95.410156" xlink:href="#DejaVuSans-48"/>
      </g>
     </g>
    </g>
    <g id="xtick_2">
     <g id="line2d_3">
      <path clip-path="url(#p751924af38)" d="M 145.322159 239.758125 
L 145.322159 22.318125 
" style="fill:none;stroke:#b0b0b0;stroke-linecap:square;stroke-width:0.8;"/>
     </g>
     <g id="line2d_4">
      <g>
       <use style="stroke:#000000;stroke-width:0.8;" x="145.322159" xlink:href="#m420a00bc39" y="239.758125"/>
      </g>
     </g>
     <g id="text_2">
      <!-- 0.1 -->
      <defs>
       <path d="M 12.40625 8.296875 
L 28.515625 8.296875 
L 28.515625 63.921875 
L 10.984375 60.40625 
L 10.984375 69.390625 
L 28.421875 72.90625 
L 38.28125 72.90625 
L 38.28125 8.296875 
L 54.390625 8.296875 
L 54.390625 0 
L 12.40625 0 
z
" id="DejaVuSans-49"/>
      </defs>
      <g transform="translate(137.370597 254.356562)scale(0.1 -0.1)">
       <use xlink:href="#DejaVuSans-48"/>
       <use x="63.623047" xlink:href="#DejaVuSans-46"/>
       <use x="95.410156" xlink:href="#DejaVuSans-49"/>
      </g>
     </g>
    </g>
    <g id="xtick_3">
     <g id="line2d_5">
      <path clip-path="url(#p751924af38)" d="M 206.194886 239.758125 
L 206.194886 22.318125 
" style="fill:none;stroke:#b0b0b0;stroke-linecap:square;stroke-width:0.8;"/>
     </g>
     <g id="line2d_6">
      <g>
       <use style="stroke:#000000;stroke-width:0.8;" x="206.194886" xlink:href="#m420a00bc39" y="239.758125"/>
      </g>
     </g>
     <g id="text_3">
      <!-- 0.2 -->
      <defs>
       <path d="M 19.1875 8.296875 
L 53.609375 8.296875 
L 53.609375 0 
L 7.328125 0 
L 7.328125 8.296875 
Q 12.9375 14.109375 22.625 23.890625 
Q 32.328125 33.6875 34.8125 36.53125 
Q 39.546875 41.84375 41.421875 45.53125 
Q 43.3125 49.21875 43.3125 52.78125 
Q 43.3125 58.59375 39.234375 62.25 
Q 35.15625 65.921875 28.609375 65.921875 
Q 23.96875 65.921875 18.8125 64.3125 
Q 13.671875 62.703125 7.8125 59.421875 
L 7.8125 69.390625 
Q 13.765625 71.78125 18.9375 73 
Q 24.125 74.21875 28.421875 74.21875 
Q 39.75 74.21875 46.484375 68.546875 
Q 53.21875 62.890625 53.21875 53.421875 
Q 53.21875 48.921875 51.53125 44.890625 
Q 49.859375 40.875 45.40625 35.40625 
Q 44.1875 33.984375 37.640625 27.21875 
Q 31.109375 20.453125 19.1875 8.296875 
z
" id="DejaVuSans-50"/>
      </defs>
      <g transform="translate(198.243324 254.356562)scale(0.1 -0.1)">
       <use xlink:href="#DejaVuSans-48"/>
       <use x="63.623047" xlink:href="#DejaVuSans-46"/>
       <use x="95.410156" xlink:href="#DejaVuSans-50"/>
      </g>
     </g>
    </g>
    <g id="xtick_4">
     <g id="line2d_7">
      <path clip-path="url(#p751924af38)" d="M 267.067614 239.758125 
L 267.067614 22.318125 
" style="fill:none;stroke:#b0b0b0;stroke-linecap:square;stroke-width:0.8;"/>
     </g>
     <g id="line2d_8">
      <g>
       <use style="stroke:#000000;stroke-width:0.8;" x="267.067614" xlink:href="#m420a00bc39" y="239.758125"/>
      </g>
     </g>
     <g id="text_4">
      <!-- 0.3 -->
      <defs>
       <path d="M 40.578125 39.3125 
Q 47.65625 37.796875 51.625 33 
Q 55.609375 28.21875 55.609375 21.1875 
Q 55.609375 10.40625 48.1875 4.484375 
Q 40.765625 -1.421875 27.09375 -1.421875 
Q 22.515625 -1.421875 17.65625 -0.515625 
Q 12.796875 0.390625 7.625 2.203125 
L 7.625 11.71875 
Q 11.71875 9.328125 16.59375 8.109375 
Q 21.484375 6.890625 26.8125 6.890625 
Q 36.078125 6.890625 40.9375 10.546875 
Q 45.796875 14.203125 45.796875 21.1875 
Q 45.796875 27.640625 41.28125 31.265625 
Q 36.765625 34.90625 28.71875 34.90625 
L 20.21875 34.90625 
L 20.21875 43.015625 
L 29.109375 43.015625 
Q 36.375 43.015625 40.234375 45.921875 
Q 44.09375 48.828125 44.09375 54.296875 
Q 44.09375 59.90625 40.109375 62.90625 
Q 36.140625 65.921875 28.71875 65.921875 
Q 24.65625 65.921875 20.015625 65.03125 
Q 15.375 64.15625 9.8125 62.3125 
L 9.8125 71.09375 
Q 15.4375 72.65625 20.34375 73.4375 
Q 25.25 74.21875 29.59375 74.21875 
Q 40.828125 74.21875 47.359375 69.109375 
Q 53.90625 64.015625 53.90625 55.328125 
Q 53.90625 49.265625 50.4375 45.09375 
Q 46.96875 40.921875 40.578125 39.3125 
z
" id="DejaVuSans-51"/>
      </defs>
      <g transform="translate(259.116051 254.356562)scale(0.1 -0.1)">
       <use xlink:href="#DejaVuSans-48"/>
       <use x="63.623047" xlink:href="#DejaVuSans-46"/>
       <use x="95.410156" xlink:href="#DejaVuSans-51"/>
      </g>
     </g>
    </g>
    <g id="xtick_5">
     <g id="line2d_9">
      <path clip-path="url(#p751924af38)" d="M 327.940341 239.758125 
L 327.940341 22.318125 
" style="fill:none;stroke:#b0b0b0;stroke-linecap:square;stroke-width:0.8;"/>
     </g>
     <g id="line2d_10">
      <g>
       <use style="stroke:#000000;stroke-width:0.8;" x="327.940341" xlink:href="#m420a00bc39" y="239.758125"/>
      </g>
     </g>
     <g id="text_5">
      <!-- 0.4 -->
      <defs>
       <path d="M 37.796875 64.3125 
L 12.890625 25.390625 
L 37.796875 25.390625 
z
M 35.203125 72.90625 
L 47.609375 72.90625 
L 47.609375 25.390625 
L 58.015625 25.390625 
L 58.015625 17.1875 
L 47.609375 17.1875 
L 47.609375 0 
L 37.796875 0 
L 37.796875 17.1875 
L 4.890625 17.1875 
L 4.890625 26.703125 
z
" id="DejaVuSans-52"/>
      </defs>
      <g transform="translate(319.988778 254.356562)scale(0.1 -0.1)">
       <use xlink:href="#DejaVuSans-48"/>
       <use x="63.623047" xlink:href="#DejaVuSans-46"/>
       <use x="95.410156" xlink:href="#DejaVuSans-52"/>
      </g>
     </g>
    </g>
    <g id="xtick_6">
     <g id="line2d_11">
      <path clip-path="url(#p751924af38)" d="M 388.813068 239.758125 
L 388.813068 22.318125 
" style="fill:none;stroke:#b0b0b0;stroke-linecap:square;stroke-width:0.8;"/>
     </g>
     <g id="line2d_12">
      <g>
       <use style="stroke:#000000;stroke-width:0.8;" x="388.813068" xlink:href="#m420a00bc39" y="239.758125"/>
      </g>
     </g>
     <g id="text_6">
      <!-- 0.5 -->
      <defs>
       <path d="M 10.796875 72.90625 
L 49.515625 72.90625 
L 49.515625 64.59375 
L 19.828125 64.59375 
L 19.828125 46.734375 
Q 21.96875 47.46875 24.109375 47.828125 
Q 26.265625 48.1875 28.421875 48.1875 
Q 40.625 48.1875 47.75 41.5 
Q 54.890625 34.8125 54.890625 23.390625 
Q 54.890625 11.625 47.5625 5.09375 
Q 40.234375 -1.421875 26.90625 -1.421875 
Q 22.3125 -1.421875 17.546875 -0.640625 
Q 12.796875 0.140625 7.71875 1.703125 
L 7.71875 11.625 
Q 12.109375 9.234375 16.796875 8.0625 
Q 21.484375 6.890625 26.703125 6.890625 
Q 35.15625 6.890625 40.078125 11.328125 
Q 45.015625 15.765625 45.015625 23.390625 
Q 45.015625 31 40.078125 35.4375 
Q 35.15625 39.890625 26.703125 39.890625 
Q 22.75 39.890625 18.8125 39.015625 
Q 14.890625 38.140625 10.796875 36.28125 
z
" id="DejaVuSans-53"/>
      </defs>
      <g transform="translate(380.861506 254.356562)scale(0.1 -0.1)">
       <use xlink:href="#DejaVuSans-48"/>
       <use x="63.623047" xlink:href="#DejaVuSans-46"/>
       <use x="95.410156" xlink:href="#DejaVuSans-53"/>
      </g>
     </g>
    </g>
    <g id="text_7">
     <!-- Time -->
     <defs>
      <path d="M -0.296875 72.90625 
L 61.375 72.90625 
L 61.375 64.59375 
L 35.5 64.59375 
L 35.5 0 
L 25.59375 0 
L 25.59375 64.59375 
L -0.296875 64.59375 
z
" id="DejaVuSans-84"/>
      <path d="M 9.421875 54.6875 
L 18.40625 54.6875 
L 18.40625 0 
L 9.421875 0 
z
M 9.421875 75.984375 
L 18.40625 75.984375 
L 18.40625 64.59375 
L 9.421875 64.59375 
z
" id="DejaVuSans-105"/>
      <path d="M 52 44.1875 
Q 55.375 50.25 60.0625 53.125 
Q 64.75 56 71.09375 56 
Q 79.640625 56 84.28125 50.015625 
Q 88.921875 44.046875 88.921875 33.015625 
L 88.921875 0 
L 79.890625 0 
L 79.890625 32.71875 
Q 79.890625 40.578125 77.09375 44.375 
Q 74.3125 48.1875 68.609375 48.1875 
Q 61.625 48.1875 57.5625 43.546875 
Q 53.515625 38.921875 53.515625 30.90625 
L 53.515625 0 
L 44.484375 0 
L 44.484375 32.71875 
Q 44.484375 40.625 41.703125 44.40625 
Q 38.921875 48.1875 33.109375 48.1875 
Q 26.21875 48.1875 22.15625 43.53125 
Q 18.109375 38.875 18.109375 30.90625 
L 18.109375 0 
L 9.078125 0 
L 9.078125 54.6875 
L 18.109375 54.6875 
L 18.109375 46.1875 
Q 21.1875 51.21875 25.484375 53.609375 
Q 29.78125 56 35.6875 56 
Q 41.65625 56 45.828125 52.96875 
Q 50 49.953125 52 44.1875 
z
" id="DejaVuSans-109"/>
      <path d="M 56.203125 29.59375 
L 56.203125 25.203125 
L 14.890625 25.203125 
Q 15.484375 15.921875 20.484375 11.0625 
Q 25.484375 6.203125 34.421875 6.203125 
Q 39.59375 6.203125 44.453125 7.46875 
Q 49.3125 8.734375 54.109375 11.28125 
L 54.109375 2.78125 
Q 49.265625 0.734375 44.1875 -0.34375 
Q 39.109375 -1.421875 33.890625 -1.421875 
Q 20.796875 -1.421875 13.15625 6.1875 
Q 5.515625 13.8125 5.515625 26.8125 
Q 5.515625 40.234375 12.765625 48.109375 
Q 20.015625 56 32.328125 56 
Q 43.359375 56 49.78125 48.890625 
Q 56.203125 41.796875 56.203125 29.59375 
z
M 47.21875 32.234375 
Q 47.125 39.59375 43.09375 43.984375 
Q 39.0625 48.390625 32.421875 48.390625 
Q 24.90625 48.390625 20.390625 44.140625 
Q 15.875 39.890625 15.1875 32.171875 
z
" id="DejaVuSans-101"/>
     </defs>
     <g transform="translate(224.397656 268.034687)scale(0.1 -0.1)">
      <use xlink:href="#DejaVuSans-84"/>
      <use x="57.958984" xlink:href="#DejaVuSans-105"/>
      <use x="85.742188" xlink:href="#DejaVuSans-109"/>
      <use x="183.154297" xlink:href="#DejaVuSans-101"/>
     </g>
    </g>
   </g>
   <g id="matplotlib.axis_2">
    <g id="ytick_1">
     <g id="line2d_13">
      <path clip-path="url(#p751924af38)" d="M 69.23125 229.874489 
L 404.03125 229.874489 
" style="fill:none;stroke:#b0b0b0;stroke-linecap:square;stroke-width:0.8;"/>
     </g>
     <g id="line2d_14">
      <defs>
       <path d="M 0 0 
L -3.5 0 
" id="md9703f1cb1" style="stroke:#000000;stroke-width:0.8;"/>
      </defs>
      <g>
       <use style="stroke:#000000;stroke-width:0.8;" x="69.23125" xlink:href="#md9703f1cb1" y="229.874489"/>
      </g>
     </g>
     <g id="text_8">
      <!-- 0.00000 -->
      <g transform="translate(20.878125 233.673707)scale(0.1 -0.1)">
       <use xlink:href="#DejaVuSans-48"/>
       <use x="63.623047" xlink:href="#DejaVuSans-46"/>
       <use x="95.410156" xlink:href="#DejaVuSans-48"/>
       <use x="159.033203" xlink:href="#DejaVuSans-48"/>
       <use x="222.65625" xlink:href="#DejaVuSans-48"/>
       <use x="286.279297" xlink:href="#DejaVuSans-48"/>
       <use x="349.902344" xlink:href="#DejaVuSans-48"/>
      </g>
     </g>
    </g>
    <g id="ytick_2">
     <g id="line2d_15">
      <path clip-path="url(#p751924af38)" d="M 69.23125 189.490966 
L 404.03125 189.490966 
" style="fill:none;stroke:#b0b0b0;stroke-linecap:square;stroke-width:0.8;"/>
     </g>
     <g id="line2d_16">
      <g>
       <use style="stroke:#000000;stroke-width:0.8;" x="69.23125" xlink:href="#md9703f1cb1" y="189.490966"/>
      </g>
     </g>
     <g id="text_9">
      <!-- 0.00002 -->
      <g transform="translate(20.878125 193.290185)scale(0.1 -0.1)">
       <use xlink:href="#DejaVuSans-48"/>
       <use x="63.623047" xlink:href="#DejaVuSans-46"/>
       <use x="95.410156" xlink:href="#DejaVuSans-48"/>
       <use x="159.033203" xlink:href="#DejaVuSans-48"/>
       <use x="222.65625" xlink:href="#DejaVuSans-48"/>
       <use x="286.279297" xlink:href="#DejaVuSans-48"/>
       <use x="349.902344" xlink:href="#DejaVuSans-50"/>
      </g>
     </g>
    </g>
    <g id="ytick_3">
     <g id="line2d_17">
      <path clip-path="url(#p751924af38)" d="M 69.23125 149.107444 
L 404.03125 149.107444 
" style="fill:none;stroke:#b0b0b0;stroke-linecap:square;stroke-width:0.8;"/>
     </g>
     <g id="line2d_18">
      <g>
       <use style="stroke:#000000;stroke-width:0.8;" x="69.23125" xlink:href="#md9703f1cb1" y="149.107444"/>
      </g>
     </g>
     <g id="text_10">
      <!-- 0.00004 -->
      <g transform="translate(20.878125 152.906663)scale(0.1 -0.1)">
       <use xlink:href="#DejaVuSans-48"/>
       <use x="63.623047" xlink:href="#DejaVuSans-46"/>
       <use x="95.410156" xlink:href="#DejaVuSans-48"/>
       <use x="159.033203" xlink:href="#DejaVuSans-48"/>
       <use x="222.65625" xlink:href="#DejaVuSans-48"/>
       <use x="286.279297" xlink:href="#DejaVuSans-48"/>
       <use x="349.902344" xlink:href="#DejaVuSans-52"/>
      </g>
     </g>
    </g>
    <g id="ytick_4">
     <g id="line2d_19">
      <path clip-path="url(#p751924af38)" d="M 69.23125 108.723922 
L 404.03125 108.723922 
" style="fill:none;stroke:#b0b0b0;stroke-linecap:square;stroke-width:0.8;"/>
     </g>
     <g id="line2d_20">
      <g>
       <use style="stroke:#000000;stroke-width:0.8;" x="69.23125" xlink:href="#md9703f1cb1" y="108.723922"/>
      </g>
     </g>
     <g id="text_11">
      <!-- 0.00006 -->
      <defs>
       <path d="M 33.015625 40.375 
Q 26.375 40.375 22.484375 35.828125 
Q 18.609375 31.296875 18.609375 23.390625 
Q 18.609375 15.53125 22.484375 10.953125 
Q 26.375 6.390625 33.015625 6.390625 
Q 39.65625 6.390625 43.53125 10.953125 
Q 47.40625 15.53125 47.40625 23.390625 
Q 47.40625 31.296875 43.53125 35.828125 
Q 39.65625 40.375 33.015625 40.375 
z
M 52.59375 71.296875 
L 52.59375 62.3125 
Q 48.875 64.0625 45.09375 64.984375 
Q 41.3125 65.921875 37.59375 65.921875 
Q 27.828125 65.921875 22.671875 59.328125 
Q 17.53125 52.734375 16.796875 39.40625 
Q 19.671875 43.65625 24.015625 45.921875 
Q 28.375 48.1875 33.59375 48.1875 
Q 44.578125 48.1875 50.953125 41.515625 
Q 57.328125 34.859375 57.328125 23.390625 
Q 57.328125 12.15625 50.6875 5.359375 
Q 44.046875 -1.421875 33.015625 -1.421875 
Q 20.359375 -1.421875 13.671875 8.265625 
Q 6.984375 17.96875 6.984375 36.375 
Q 6.984375 53.65625 15.1875 63.9375 
Q 23.390625 74.21875 37.203125 74.21875 
Q 40.921875 74.21875 44.703125 73.484375 
Q 48.484375 72.75 52.59375 71.296875 
z
" id="DejaVuSans-54"/>
      </defs>
      <g transform="translate(20.878125 112.52314)scale(0.1 -0.1)">
       <use xlink:href="#DejaVuSans-48"/>
       <use x="63.623047" xlink:href="#DejaVuSans-46"/>
       <use x="95.410156" xlink:href="#DejaVuSans-48"/>
       <use x="159.033203" xlink:href="#DejaVuSans-48"/>
       <use x="222.65625" xlink:href="#DejaVuSans-48"/>
       <use x="286.279297" xlink:href="#DejaVuSans-48"/>
       <use x="349.902344" xlink:href="#DejaVuSans-54"/>
      </g>
     </g>
    </g>
    <g id="ytick_5">
     <g id="line2d_21">
      <path clip-path="url(#p751924af38)" d="M 69.23125 68.340399 
L 404.03125 68.340399 
" style="fill:none;stroke:#b0b0b0;stroke-linecap:square;stroke-width:0.8;"/>
     </g>
     <g id="line2d_22">
      <g>
       <use style="stroke:#000000;stroke-width:0.8;" x="69.23125" xlink:href="#md9703f1cb1" y="68.340399"/>
      </g>
     </g>
     <g id="text_12">
      <!-- 0.00008 -->
      <defs>
       <path d="M 31.78125 34.625 
Q 24.75 34.625 20.71875 30.859375 
Q 16.703125 27.09375 16.703125 20.515625 
Q 16.703125 13.921875 20.71875 10.15625 
Q 24.75 6.390625 31.78125 6.390625 
Q 38.8125 6.390625 42.859375 10.171875 
Q 46.921875 13.96875 46.921875 20.515625 
Q 46.921875 27.09375 42.890625 30.859375 
Q 38.875 34.625 31.78125 34.625 
z
M 21.921875 38.8125 
Q 15.578125 40.375 12.03125 44.71875 
Q 8.5 49.078125 8.5 55.328125 
Q 8.5 64.0625 14.71875 69.140625 
Q 20.953125 74.21875 31.78125 74.21875 
Q 42.671875 74.21875 48.875 69.140625 
Q 55.078125 64.0625 55.078125 55.328125 
Q 55.078125 49.078125 51.53125 44.71875 
Q 48 40.375 41.703125 38.8125 
Q 48.828125 37.15625 52.796875 32.3125 
Q 56.78125 27.484375 56.78125 20.515625 
Q 56.78125 9.90625 50.3125 4.234375 
Q 43.84375 -1.421875 31.78125 -1.421875 
Q 19.734375 -1.421875 13.25 4.234375 
Q 6.78125 9.90625 6.78125 20.515625 
Q 6.78125 27.484375 10.78125 32.3125 
Q 14.796875 37.15625 21.921875 38.8125 
z
M 18.3125 54.390625 
Q 18.3125 48.734375 21.84375 45.5625 
Q 25.390625 42.390625 31.78125 42.390625 
Q 38.140625 42.390625 41.71875 45.5625 
Q 45.3125 48.734375 45.3125 54.390625 
Q 45.3125 60.0625 41.71875 63.234375 
Q 38.140625 66.40625 31.78125 66.40625 
Q 25.390625 66.40625 21.84375 63.234375 
Q 18.3125 60.0625 18.3125 54.390625 
z
" id="DejaVuSans-56"/>
      </defs>
      <g transform="translate(20.878125 72.139618)scale(0.1 -0.1)">
       <use xlink:href="#DejaVuSans-48"/>
       <use x="63.623047" xlink:href="#DejaVuSans-46"/>
       <use x="95.410156" xlink:href="#DejaVuSans-48"/>
       <use x="159.033203" xlink:href="#DejaVuSans-48"/>
       <use x="222.65625" xlink:href="#DejaVuSans-48"/>
       <use x="286.279297" xlink:href="#DejaVuSans-48"/>
       <use x="349.902344" xlink:href="#DejaVuSans-56"/>
      </g>
     </g>
    </g>
    <g id="ytick_6">
     <g id="line2d_23">
      <path clip-path="url(#p751924af38)" d="M 69.23125 27.956877 
L 404.03125 27.956877 
" style="fill:none;stroke:#b0b0b0;stroke-linecap:square;stroke-width:0.8;"/>
     </g>
     <g id="line2d_24">
      <g>
       <use style="stroke:#000000;stroke-width:0.8;" x="69.23125" xlink:href="#md9703f1cb1" y="27.956877"/>
      </g>
     </g>
     <g id="text_13">
      <!-- 0.00010 -->
      <g transform="translate(20.878125 31.756096)scale(0.1 -0.1)">
       <use xlink:href="#DejaVuSans-48"/>
       <use x="63.623047" xlink:href="#DejaVuSans-46"/>
       <use x="95.410156" xlink:href="#DejaVuSans-48"/>
       <use x="159.033203" xlink:href="#DejaVuSans-48"/>
       <use x="222.65625" xlink:href="#DejaVuSans-48"/>
       <use x="286.279297" xlink:href="#DejaVuSans-49"/>
       <use x="349.902344" xlink:href="#DejaVuSans-48"/>
      </g>
     </g>
    </g>
    <g id="text_14">
     <!-- Value -->
     <defs>
      <path d="M 28.609375 0 
L 0.78125 72.90625 
L 11.078125 72.90625 
L 34.1875 11.53125 
L 57.328125 72.90625 
L 67.578125 72.90625 
L 39.796875 0 
z
" id="DejaVuSans-86"/>
      <path d="M 34.28125 27.484375 
Q 23.390625 27.484375 19.1875 25 
Q 14.984375 22.515625 14.984375 16.5 
Q 14.984375 11.71875 18.140625 8.90625 
Q 21.296875 6.109375 26.703125 6.109375 
Q 34.1875 6.109375 38.703125 11.40625 
Q 43.21875 16.703125 43.21875 25.484375 
L 43.21875 27.484375 
z
M 52.203125 31.203125 
L 52.203125 0 
L 43.21875 0 
L 43.21875 8.296875 
Q 40.140625 3.328125 35.546875 0.953125 
Q 30.953125 -1.421875 24.3125 -1.421875 
Q 15.921875 -1.421875 10.953125 3.296875 
Q 6 8.015625 6 15.921875 
Q 6 25.140625 12.171875 29.828125 
Q 18.359375 34.515625 30.609375 34.515625 
L 43.21875 34.515625 
L 43.21875 35.40625 
Q 43.21875 41.609375 39.140625 45 
Q 35.0625 48.390625 27.6875 48.390625 
Q 23 48.390625 18.546875 47.265625 
Q 14.109375 46.140625 10.015625 43.890625 
L 10.015625 52.203125 
Q 14.9375 54.109375 19.578125 55.046875 
Q 24.21875 56 28.609375 56 
Q 40.484375 56 46.34375 49.84375 
Q 52.203125 43.703125 52.203125 31.203125 
z
" id="DejaVuSans-97"/>
      <path d="M 9.421875 75.984375 
L 18.40625 75.984375 
L 18.40625 0 
L 9.421875 0 
z
" id="DejaVuSans-108"/>
      <path d="M 8.5 21.578125 
L 8.5 54.6875 
L 17.484375 54.6875 
L 17.484375 21.921875 
Q 17.484375 14.15625 20.5 10.265625 
Q 23.53125 6.390625 29.59375 6.390625 
Q 36.859375 6.390625 41.078125 11.03125 
Q 45.3125 15.671875 45.3125 23.6875 
L 45.3125 54.6875 
L 54.296875 54.6875 
L 54.296875 0 
L 45.3125 0 
L 45.3125 8.40625 
Q 42.046875 3.421875 37.71875 1 
Q 33.40625 -1.421875 27.6875 -1.421875 
Q 18.265625 -1.421875 13.375 4.4375 
Q 8.5 10.296875 8.5 21.578125 
z
M 31.109375 56 
z
" id="DejaVuSans-117"/>
     </defs>
     <g transform="translate(14.798437 144.769375)rotate(-90)scale(0.1 -0.1)">
      <use xlink:href="#DejaVuSans-86"/>
      <use x="60.658203" xlink:href="#DejaVuSans-97"/>
      <use x="121.9375" xlink:href="#DejaVuSans-108"/>
      <use x="149.720703" xlink:href="#DejaVuSans-117"/>
      <use x="213.099609" xlink:href="#DejaVuSans-101"/>
     </g>
    </g>
   </g>
   <g id="line2d_25">
    <path clip-path="url(#p751924af38)" d="M 84.449432 229.874489 
L 85.058159 229.437417 
L 85.666886 229.178544 
L 86.275614 229.080863 
L 86.884341 229.126745 
L 88.101795 229.575494 
L 88.710523 229.809095 
L 90.536705 228.400809 
L 92.362886 226.981241 
L 93.580341 226.343134 
L 94.189068 226.192354 
L 94.797795 226.189233 
L 95.406523 226.361362 
L 96.01525 226.737135 
L 96.623977 223.563038 
L 97.232705 219.53631 
L 97.841432 216.371368 
L 98.450159 214.021119 
L 99.058886 212.436616 
L 99.667614 211.567028 
L 100.276341 211.359606 
L 100.885068 211.759646 
L 101.493795 212.710463 
L 102.102523 214.153352 
L 102.71125 216.027556 
L 103.928705 220.816426 
L 105.754886 229.594013 
L 106.363614 227.087853 
L 108.189795 218.527793 
L 108.798523 213.10234 
L 109.40725 208.882817 
L 110.015977 206.004659 
L 110.624705 204.358159 
L 111.233432 203.829723 
L 111.842159 204.301811 
L 112.450886 205.652873 
L 113.059614 207.757292 
L 114.277068 213.703005 
L 116.10325 224.890462 
L 116.711977 228.641399 
L 117.320705 227.601712 
L 118.538159 221.971314 
L 119.755614 218.520946 
L 120.364341 210.320806 
L 120.973068 204.288402 
L 121.581795 200.234053 
L 122.190523 197.961641 
L 122.79925 197.26852 
L 123.407977 197.945429 
L 124.016705 199.776397 
L 124.625432 202.538661 
L 125.842886 209.931491 
L 127.060341 218.202456 
L 127.669068 223.716107 
L 128.277795 228.093958 
L 129.49525 215.939415 
L 130.103977 211.593468 
L 130.712705 208.310948 
L 131.321432 206.020778 
L 131.930159 204.649455 
L 132.538886 204.121016 
L 133.147614 204.357006 
L 133.756341 205.276445 
L 134.365068 206.795799 
L 134.973795 208.828943 
L 136.19125 214.078972 
L 139.234886 229.654547 
L 141.061068 223.190953 
L 141.669795 221.961898 
L 142.278523 221.465771 
L 142.88725 221.825157 
L 143.495977 218.933988 
L 144.104705 213.159371 
L 144.713432 209.127334 
L 145.322159 206.542471 
L 145.930886 205.100863 
L 146.539614 204.48999 
L 147.148341 207.879726 
L 148.365795 216.481304 
L 149.58325 223.648429 
L 150.800705 229.456938 
L 151.409432 227.871887 
L 152.626886 223.945599 
L 153.844341 221.161063 
L 154.453068 220.166568 
L 155.061795 219.420221 
L 155.670523 218.908717 
L 156.27925 218.618327 
L 156.887977 218.534889 
L 157.496705 218.643805 
L 158.105432 218.930038 
L 158.714159 219.378106 
L 159.931614 220.695573 
L 161.149068 222.46331 
L 162.97525 225.650297 
L 164.801432 229.027904 
L 165.410159 229.645731 
L 166.018886 229.049565 
L 166.627614 228.034346 
L 167.845068 167.280928 
L 169.062523 113.199451 
L 170.279977 73.822836 
L 170.888705 59.302367 
L 171.497432 48.033346 
L 172.106159 39.864754 
L 172.714886 34.640976 
L 173.323614 32.201761 
L 173.932341 32.382186 
L 174.541068 35.012617 
L 175.149795 39.918676 
L 175.758523 46.921206 
L 176.36725 55.836232 
L 177.584705 78.643609 
L 178.802159 106.771484 
L 180.628341 155.311474 
L 183.06325 222.594391 
L 183.671977 221.435178 
L 184.889432 189.253641 
L 186.106886 151.635415 
L 187.324341 120.677414 
L 188.541795 96.124039 
L 189.75925 77.700641 
L 190.367977 70.696572 
L 190.976705 65.113218 
L 191.585432 60.910757 
L 192.194159 58.048123 
L 192.802886 56.482995 
L 193.411614 56.171794 
L 194.020341 57.069673 
L 194.629068 59.130507 
L 195.237795 62.306892 
L 195.846523 66.550134 
L 197.063977 78.035942 
L 198.281432 93.172384 
L 199.498886 111.522934 
L 201.325068 144.068235 
L 203.15125 181.17595 
L 204.977432 221.102826 
L 205.586159 227.129915 
L 207.412341 209.132848 
L 208.021068 203.977901 
L 208.629795 199.838528 
L 209.238523 197.080688 
L 209.84725 188.923554 
L 211.064705 137.903556 
L 212.282159 98.899235 
L 213.499614 71.016466 
L 214.108341 60.954072 
L 214.717068 53.316564 
L 215.325795 47.979605 
L 215.934523 44.816047 
L 216.54325 43.695923 
L 217.151977 44.486445 
L 217.760705 47.051999 
L 218.369432 51.254144 
L 218.978159 56.951606 
L 220.195614 72.253222 
L 221.413068 91.769983 
L 223.23925 126.240633 
L 226.891614 197.655817 
L 227.500341 207.867544 
L 228.109068 220.813744 
L 228.717795 224.494812 
L 229.93525 199.847428 
L 231.152705 180.574144 
L 232.370159 166.337013 
L 232.978886 160.997221 
L 233.587614 156.782818 
L 234.196341 153.647264 
L 234.805068 151.543063 
L 235.413795 150.421766 
L 236.022523 150.23397 
L 236.63125 150.929317 
L 237.239977 152.456497 
L 237.848705 154.763252 
L 238.457432 157.796372 
L 239.674886 165.824132 
L 240.892341 176.095188 
L 242.109795 188.149896 
L 243.935977 208.534011 
L 245.762159 229.553486 
L 248.197068 201.700693 
L 249.414523 189.427747 
L 250.631977 179.001808 
L 251.240705 174.660984 
L 251.849432 175.374648 
L 252.458159 177.076723 
L 253.066886 167.753845 
L 254.284341 139.931925 
L 255.501795 118.645099 
L 256.71925 103.43222 
L 257.327977 97.954935 
L 257.936705 93.815815 
L 258.545432 90.952646 
L 259.154159 89.302203 
L 259.762886 88.800263 
L 260.371614 89.381604 
L 260.980341 90.980013 
L 261.589068 93.528285 
L 262.197795 96.958236 
L 263.41525 106.185543 
L 264.632705 118.096978 
L 265.850159 132.112199 
L 267.676341 155.772769 
L 271.937432 212.380297 
L 273.154886 225.994005 
L 273.763614 227.794697 
L 274.981068 218.00022 
L 276.198523 204.542092 
L 276.80725 199.413406 
L 277.415977 195.3871 
L 278.024705 192.406341 
L 278.633432 190.413554 
L 279.242159 189.350422 
L 279.850886 189.157893 
L 280.459614 189.776185 
L 281.068341 191.14479 
L 281.677068 193.202483 
L 282.285795 195.887321 
L 283.50325 202.887134 
L 284.720705 211.63463 
L 286.546886 226.890849 
L 287.155614 227.469834 
L 289.590523 206.2227 
L 290.807977 196.761209 
L 292.025432 188.835109 
L 292.634159 185.6296 
L 293.242886 183.027277 
L 293.851614 181.102504 
L 294.460341 179.930236 
L 295.069068 179.58601 
L 295.677795 179.978897 
L 296.89525 136.795907 
L 298.112705 102.557006 
L 299.330159 76.12836 
L 299.938886 65.48223 
L 300.547614 58.75748 
L 301.156341 54.635827 
L 301.765068 51.478589 
L 302.373795 49.253941 
L 302.982523 47.929697 
L 303.59125 47.473314 
L 304.199977 47.851895 
L 304.808705 49.032193 
L 305.417432 50.980612 
L 306.026159 53.66321 
L 306.634886 57.045708 
L 307.852341 65.771584 
L 309.069795 76.877281 
L 310.28725 90.07659 
L 312.113432 113.162374 
L 313.939614 139.297668 
L 316.98325 186.827573 
L 319.418159 225.592723 
L 320.026886 224.697411 
L 322.461795 189.02712 
L 324.287977 165.721996 
L 325.505432 152.465166 
L 326.722886 141.435422 
L 327.940341 132.982402 
L 328.549068 129.832388 
L 329.157795 126.049236 
L 329.766523 121.107924 
L 330.37525 117.260929 
L 330.983977 114.459418 
L 331.592705 112.65419 
L 332.201432 111.795672 
L 332.810159 111.833934 
L 333.418886 112.718683 
L 334.027614 114.399274 
L 334.636341 116.824713 
L 335.245068 119.94366 
L 336.462523 128.055014 
L 337.679977 138.315871 
L 338.897432 150.303521 
L 340.723614 170.585509 
L 345.593432 227.738867 
L 346.202159 225.554906 
L 347.419614 213.727224 
L 348.637068 203.726695 
L 349.854523 196.017041 
L 350.46325 193.167272 
L 351.071977 191.065872 
L 351.680705 189.771877 
L 352.289432 189.344553 
L 352.898159 189.843388 
L 354.115614 185.581565 
L 354.724341 184.212257 
L 355.333068 183.331183 
L 355.941795 182.882823 
L 356.550523 182.811384 
L 357.15925 183.06081 
L 357.767977 183.574778 
L 358.985432 185.169761 
L 360.202886 187.140651 
L 360.811614 188.828744 
L 362.029068 193.884374 
L 363.246523 198.254138 
L 364.463977 201.97908 
L 365.681432 205.10071 
L 366.898886 207.661001 
L 368.116341 209.702369 
L 369.333795 211.267663 
L 370.55125 212.400156 
L 371.768705 213.143528 
L 372.986159 213.541859 
L 374.203614 213.639614 
L 375.421068 213.481629 
L 376.638523 213.113106 
L 378.464705 212.265299 
L 381.508341 210.449682 
L 383.94325 209.054683 
L 385.769432 208.289816 
L 386.986886 208.003335 
L 388.204341 207.951676 
L 388.813068 208.029004 
L 388.813068 208.029004 
" style="fill:none;stroke:#008000;stroke-linecap:square;stroke-width:1.5;"/>
   </g>
   <g id="line2d_26">
    <path clip-path="url(#p751924af38)" d="M 84.449432 229.874489 
L 85.058159 229.437417 
L 85.666886 229.178544 
L 86.275614 229.080863 
L 86.884341 229.126745 
L 88.101795 229.575494 
L 88.710523 229.809095 
L 90.536705 228.400809 
L 92.362886 226.981241 
L 93.580341 226.343134 
L 94.189068 226.192354 
L 94.797795 226.189233 
L 95.406523 226.361362 
L 96.01525 226.737135 
L 96.623977 223.563038 
L 97.232705 219.53631 
L 97.841432 216.371368 
L 98.450159 214.021119 
L 99.058886 212.436616 
L 99.667614 211.567028 
L 100.276341 211.359606 
L 100.885068 211.759646 
L 101.493795 212.710463 
L 102.102523 214.153352 
L 102.71125 216.027556 
L 103.928705 220.816426 
L 105.754886 229.594013 
L 106.363614 227.087853 
L 108.189795 218.527793 
L 108.798523 213.10234 
L 109.40725 208.882817 
L 110.015977 206.004659 
L 110.624705 204.358159 
L 111.233432 203.829723 
L 111.842159 204.301811 
L 112.450886 205.652873 
L 113.059614 207.757292 
L 114.277068 213.703005 
L 116.10325 224.890462 
L 116.711977 228.641399 
L 117.320705 227.601712 
L 118.538159 221.971314 
L 119.755614 218.520946 
L 120.364341 210.320806 
L 120.973068 204.288402 
L 121.581795 200.234053 
L 122.190523 197.961641 
L 122.79925 197.26852 
L 123.407977 197.945429 
L 124.016705 199.776397 
L 124.625432 202.538661 
L 125.842886 209.931491 
L 127.060341 218.202456 
L 127.669068 223.716107 
L 128.277795 228.093958 
L 129.49525 215.939415 
L 130.103977 211.593468 
L 130.712705 208.310948 
L 131.321432 206.020778 
L 131.930159 204.649455 
L 132.538886 204.121016 
L 133.147614 204.357006 
L 133.756341 205.276445 
L 134.365068 206.795799 
L 134.973795 208.828943 
L 136.19125 214.078972 
L 139.234886 229.654547 
L 141.061068 223.190953 
L 141.669795 221.961898 
L 142.278523 221.465771 
L 142.88725 221.825157 
L 143.495977 218.933988 
L 144.104705 213.159371 
L 144.713432 209.127334 
L 145.322159 206.542471 
L 145.930886 205.100863 
L 146.539614 204.48999 
L 147.148341 207.879726 
L 148.365795 216.481304 
L 149.58325 223.648429 
L 150.800705 229.456938 
L 151.409432 227.871887 
L 152.626886 223.945599 
L 153.844341 221.161063 
L 154.453068 220.166568 
L 155.061795 219.420221 
L 155.670523 218.908717 
L 156.27925 218.618327 
L 156.887977 218.534889 
L 157.496705 218.643805 
L 158.105432 218.930038 
L 158.714159 219.378106 
L 159.931614 220.695573 
L 161.149068 222.46331 
L 162.97525 225.650297 
L 164.801432 229.027904 
L 165.410159 229.645731 
L 166.018886 229.049565 
L 166.627614 228.034346 
L 167.845068 167.280928 
L 169.062523 113.199451 
L 170.279977 73.822836 
L 170.888705 59.302367 
L 171.497432 48.033346 
L 172.106159 39.864754 
L 172.714886 34.640976 
L 173.323614 32.201761 
L 173.932341 32.382186 
L 174.541068 35.012617 
L 175.149795 39.918676 
L 175.758523 46.921206 
L 176.36725 55.836232 
L 177.584705 78.643609 
L 178.802159 106.771484 
L 180.628341 155.311474 
L 183.06325 222.594391 
L 183.671977 221.435178 
L 184.889432 189.253641 
L 186.106886 151.635415 
L 187.324341 120.677414 
L 188.541795 96.124039 
L 189.75925 77.700641 
L 190.367977 70.696572 
L 190.976705 65.113218 
L 191.585432 60.910757 
L 192.194159 58.048123 
L 192.802886 56.482995 
L 193.411614 56.171794 
L 194.020341 57.069673 
L 194.629068 59.130507 
L 195.237795 62.306892 
L 195.846523 66.550134 
L 197.063977 78.035942 
L 198.281432 93.172384 
L 199.498886 111.522934 
L 201.325068 144.068235 
L 203.15125 181.17595 
L 204.977432 221.102826 
L 205.586159 227.129915 
L 207.412341 209.132848 
L 208.021068 203.977901 
L 208.629795 199.838528 
L 209.238523 197.080688 
L 209.84725 188.923554 
L 211.064705 137.903556 
L 212.282159 98.899235 
L 213.499614 71.016466 
L 214.108341 60.954072 
L 214.717068 53.316564 
L 215.325795 47.979605 
L 215.934523 44.816047 
L 216.54325 43.695923 
L 217.151977 44.486445 
L 217.760705 47.051999 
L 218.369432 51.254144 
L 218.978159 56.951606 
L 220.195614 72.253222 
L 221.413068 91.769983 
L 223.23925 126.240633 
L 226.891614 197.655817 
L 227.500341 207.867544 
L 228.109068 220.813744 
L 228.717795 224.494812 
L 229.93525 199.847428 
L 231.152705 180.574144 
L 232.370159 166.337013 
L 232.978886 160.997221 
L 233.587614 156.782818 
L 234.196341 153.647264 
L 234.805068 151.543063 
L 235.413795 150.421766 
L 236.022523 150.23397 
L 236.63125 150.929317 
L 237.239977 152.456497 
L 237.848705 154.763252 
L 238.457432 157.796372 
L 239.674886 165.824132 
L 240.892341 176.095188 
L 242.109795 188.149896 
L 243.935977 208.534011 
L 245.762159 229.553486 
L 248.197068 201.700693 
L 249.414523 189.427747 
L 250.631977 179.001808 
L 251.240705 174.660984 
L 251.849432 175.374648 
L 252.458159 177.076723 
L 253.066886 167.753845 
L 254.284341 139.931925 
L 255.501795 118.645099 
L 256.71925 103.43222 
L 257.327977 97.954935 
L 257.936705 93.815815 
L 258.545432 90.952646 
L 259.154159 89.302203 
L 259.762886 88.800263 
L 260.371614 89.381604 
L 260.980341 90.980013 
L 261.589068 93.528285 
L 262.197795 96.958236 
L 263.41525 106.185543 
L 264.632705 118.096978 
L 265.850159 132.112199 
L 267.676341 155.772769 
L 271.937432 212.380297 
L 273.154886 225.994005 
L 273.763614 227.794697 
L 274.981068 218.00022 
L 276.198523 204.542092 
L 276.80725 199.413406 
L 277.415977 195.3871 
L 278.024705 192.406341 
L 278.633432 190.413554 
L 279.242159 189.350422 
L 279.850886 189.157893 
L 280.459614 189.776185 
L 281.068341 191.14479 
L 281.677068 193.202483 
L 282.285795 195.887321 
L 283.50325 202.887134 
L 284.720705 211.63463 
L 286.546886 226.890849 
L 287.155614 227.469834 
L 289.590523 206.2227 
L 290.807977 196.761209 
L 292.025432 188.835109 
L 292.634159 185.6296 
L 293.242886 183.027277 
L 293.851614 181.102504 
L 294.460341 179.930236 
L 295.069068 179.58601 
L 295.677795 179.978897 
L 296.89525 136.795907 
L 298.112705 102.557006 
L 299.330159 76.12836 
L 299.938886 65.48223 
L 300.547614 58.75748 
L 301.156341 54.635827 
L 301.765068 51.478589 
L 302.373795 49.253941 
L 302.982523 47.929697 
L 303.59125 47.473314 
L 304.199977 47.851895 
L 304.808705 49.032193 
L 305.417432 50.980612 
L 306.026159 53.66321 
L 306.634886 57.045708 
L 307.852341 65.771584 
L 309.069795 76.877281 
L 310.28725 90.07659 
L 312.113432 113.162374 
L 313.939614 139.297668 
L 316.98325 186.827573 
L 319.418159 225.592723 
L 320.026886 224.697411 
L 322.461795 189.02712 
L 324.287977 165.721996 
L 325.505432 152.465166 
L 326.722886 141.435422 
L 327.940341 132.982402 
L 328.549068 129.832388 
L 329.157795 126.049236 
L 329.766523 121.107924 
L 330.37525 117.260929 
L 330.983977 114.459418 
L 331.592705 112.65419 
L 332.201432 111.795672 
L 332.810159 111.833934 
L 333.418886 112.718683 
L 334.027614 114.399274 
L 334.636341 116.824713 
L 335.245068 119.94366 
L 336.462523 128.055014 
L 337.679977 138.315871 
L 338.897432 150.303521 
L 340.723614 170.585509 
L 345.593432 227.738867 
L 346.202159 225.554906 
L 347.419614 213.727224 
L 348.637068 203.726695 
L 349.854523 196.017041 
L 350.46325 193.167272 
L 351.071977 191.065872 
L 351.680705 189.771877 
L 352.289432 189.344553 
L 352.898159 189.843388 
L 354.115614 185.581565 
L 354.724341 184.212257 
L 355.333068 183.331183 
L 355.941795 182.882823 
L 356.550523 182.811384 
L 357.15925 183.06081 
L 357.767977 183.574778 
L 358.985432 185.169761 
L 360.202886 187.140651 
L 360.811614 188.828744 
L 362.029068 193.884374 
L 363.246523 198.254138 
L 364.463977 201.97908 
L 365.681432 205.10071 
L 366.898886 207.661001 
L 368.116341 209.702369 
L 369.333795 211.267663 
L 370.55125 212.400156 
L 371.768705 213.143528 
L 372.986159 213.541859 
L 374.203614 213.639614 
L 375.421068 213.481629 
L 376.638523 213.113106 
L 378.464705 212.265299 
L 381.508341 210.449682 
L 383.94325 209.054683 
L 385.769432 208.289816 
L 386.986886 208.003335 
L 388.204341 207.951676 
L 388.813068 208.029004 
L 388.813068 208.029004 
" style="fill:none;stroke:#0000ff;stroke-dasharray:5.55,2.4;stroke-dashoffset:0;stroke-width:1.5;"/>
   </g>
   <g id="patch_3">
    <path d="M 69.23125 239.758125 
L 69.23125 22.318125 
" style="fill:none;stroke:#000000;stroke-linecap:square;stroke-linejoin:miter;stroke-width:0.8;"/>
   </g>
   <g id="patch_4">
    <path d="M 404.03125 239.758125 
L 404.03125 22.318125 
" style="fill:none;stroke:#000000;stroke-linecap:square;stroke-linejoin:miter;stroke-width:0.8;"/>
   </g>
   <g id="patch_5">
    <path d="M 69.23125 239.758125 
L 404.03125 239.758125 
" style="fill:none;stroke:#000000;stroke-linecap:square;stroke-linejoin:miter;stroke-width:0.8;"/>
   </g>
   <g id="patch_6">
    <path d="M 69.23125 22.318125 
L 404.03125 22.318125 
" style="fill:none;stroke:#000000;stroke-linecap:square;stroke-linejoin:miter;stroke-width:0.8;"/>
   </g>
   <g id="text_15">
    <!-- Decimal vs. Mpmath -->
    <defs>
     <path d="M 19.671875 64.796875 
L 19.671875 8.109375 
L 31.59375 8.109375 
Q 46.6875 8.109375 53.6875 14.9375 
Q 60.6875 21.78125 60.6875 36.53125 
Q 60.6875 51.171875 53.6875 57.984375 
Q 46.6875 64.796875 31.59375 64.796875 
z
M 9.8125 72.90625 
L 30.078125 72.90625 
Q 51.265625 72.90625 61.171875 64.09375 
Q 71.09375 55.28125 71.09375 36.53125 
Q 71.09375 17.671875 61.125 8.828125 
Q 51.171875 0 30.078125 0 
L 9.8125 0 
z
" id="DejaVuSans-68"/>
     <path d="M 48.78125 52.59375 
L 48.78125 44.1875 
Q 44.96875 46.296875 41.140625 47.34375 
Q 37.3125 48.390625 33.40625 48.390625 
Q 24.65625 48.390625 19.8125 42.84375 
Q 14.984375 37.3125 14.984375 27.296875 
Q 14.984375 17.28125 19.8125 11.734375 
Q 24.65625 6.203125 33.40625 6.203125 
Q 37.3125 6.203125 41.140625 7.25 
Q 44.96875 8.296875 48.78125 10.40625 
L 48.78125 2.09375 
Q 45.015625 0.34375 40.984375 -0.53125 
Q 36.96875 -1.421875 32.421875 -1.421875 
Q 20.0625 -1.421875 12.78125 6.34375 
Q 5.515625 14.109375 5.515625 27.296875 
Q 5.515625 40.671875 12.859375 48.328125 
Q 20.21875 56 33.015625 56 
Q 37.15625 56 41.109375 55.140625 
Q 45.0625 54.296875 48.78125 52.59375 
z
" id="DejaVuSans-99"/>
     <path id="DejaVuSans-32"/>
     <path d="M 2.984375 54.6875 
L 12.5 54.6875 
L 29.59375 8.796875 
L 46.6875 54.6875 
L 56.203125 54.6875 
L 35.6875 0 
L 23.484375 0 
z
" id="DejaVuSans-118"/>
     <path d="M 44.28125 53.078125 
L 44.28125 44.578125 
Q 40.484375 46.53125 36.375 47.5 
Q 32.28125 48.484375 27.875 48.484375 
Q 21.1875 48.484375 17.84375 46.4375 
Q 14.5 44.390625 14.5 40.28125 
Q 14.5 37.15625 16.890625 35.375 
Q 19.28125 33.59375 26.515625 31.984375 
L 29.59375 31.296875 
Q 39.15625 29.25 43.1875 25.515625 
Q 47.21875 21.78125 47.21875 15.09375 
Q 47.21875 7.46875 41.1875 3.015625 
Q 35.15625 -1.421875 24.609375 -1.421875 
Q 20.21875 -1.421875 15.453125 -0.5625 
Q 10.6875 0.296875 5.421875 2 
L 5.421875 11.28125 
Q 10.40625 8.6875 15.234375 7.390625 
Q 20.0625 6.109375 24.8125 6.109375 
Q 31.15625 6.109375 34.5625 8.28125 
Q 37.984375 10.453125 37.984375 14.40625 
Q 37.984375 18.0625 35.515625 20.015625 
Q 33.0625 21.96875 24.703125 23.78125 
L 21.578125 24.515625 
Q 13.234375 26.265625 9.515625 29.90625 
Q 5.8125 33.546875 5.8125 39.890625 
Q 5.8125 47.609375 11.28125 51.796875 
Q 16.75 56 26.8125 56 
Q 31.78125 56 36.171875 55.265625 
Q 40.578125 54.546875 44.28125 53.078125 
z
" id="DejaVuSans-115"/>
     <path d="M 9.8125 72.90625 
L 24.515625 72.90625 
L 43.109375 23.296875 
L 61.8125 72.90625 
L 76.515625 72.90625 
L 76.515625 0 
L 66.890625 0 
L 66.890625 64.015625 
L 48.09375 14.015625 
L 38.1875 14.015625 
L 19.390625 64.015625 
L 19.390625 0 
L 9.8125 0 
z
" id="DejaVuSans-77"/>
     <path d="M 18.109375 8.203125 
L 18.109375 -20.796875 
L 9.078125 -20.796875 
L 9.078125 54.6875 
L 18.109375 54.6875 
L 18.109375 46.390625 
Q 20.953125 51.265625 25.265625 53.625 
Q 29.59375 56 35.59375 56 
Q 45.5625 56 51.78125 48.09375 
Q 58.015625 40.1875 58.015625 27.296875 
Q 58.015625 14.40625 51.78125 6.484375 
Q 45.5625 -1.421875 35.59375 -1.421875 
Q 29.59375 -1.421875 25.265625 0.953125 
Q 20.953125 3.328125 18.109375 8.203125 
z
M 48.6875 27.296875 
Q 48.6875 37.203125 44.609375 42.84375 
Q 40.53125 48.484375 33.40625 48.484375 
Q 26.265625 48.484375 22.1875 42.84375 
Q 18.109375 37.203125 18.109375 27.296875 
Q 18.109375 17.390625 22.1875 11.75 
Q 26.265625 6.109375 33.40625 6.109375 
Q 40.53125 6.109375 44.609375 11.75 
Q 48.6875 17.390625 48.6875 27.296875 
z
" id="DejaVuSans-112"/>
     <path d="M 18.3125 70.21875 
L 18.3125 54.6875 
L 36.8125 54.6875 
L 36.8125 47.703125 
L 18.3125 47.703125 
L 18.3125 18.015625 
Q 18.3125 11.328125 20.140625 9.421875 
Q 21.96875 7.515625 27.59375 7.515625 
L 36.8125 7.515625 
L 36.8125 0 
L 27.59375 0 
Q 17.1875 0 13.234375 3.875 
Q 9.28125 7.765625 9.28125 18.015625 
L 9.28125 47.703125 
L 2.6875 47.703125 
L 2.6875 54.6875 
L 9.28125 54.6875 
L 9.28125 70.21875 
z
" id="DejaVuSans-116"/>
     <path d="M 54.890625 33.015625 
L 54.890625 0 
L 45.90625 0 
L 45.90625 32.71875 
Q 45.90625 40.484375 42.875 44.328125 
Q 39.84375 48.1875 33.796875 48.1875 
Q 26.515625 48.1875 22.3125 43.546875 
Q 18.109375 38.921875 18.109375 30.90625 
L 18.109375 0 
L 9.078125 0 
L 9.078125 75.984375 
L 18.109375 75.984375 
L 18.109375 46.1875 
Q 21.34375 51.125 25.703125 53.5625 
Q 30.078125 56 35.796875 56 
Q 45.21875 56 50.046875 50.171875 
Q 54.890625 44.34375 54.890625 33.015625 
z
" id="DejaVuSans-104"/>
    </defs>
    <g transform="translate(175.105938 16.318125)scale(0.12 -0.12)">
     <use xlink:href="#DejaVuSans-68"/>
     <use x="77.001953" xlink:href="#DejaVuSans-101"/>
     <use x="138.525391" xlink:href="#DejaVuSans-99"/>
     <use x="193.505859" xlink:href="#DejaVuSans-105"/>
     <use x="221.289062" xlink:href="#DejaVuSans-109"/>
     <use x="318.701172" xlink:href="#DejaVuSans-97"/>
     <use x="379.980469" xlink:href="#DejaVuSans-108"/>
     <use x="407.763672" xlink:href="#DejaVuSans-32"/>
     <use x="439.550781" xlink:href="#DejaVuSans-118"/>
     <use x="498.730469" xlink:href="#DejaVuSans-115"/>
     <use x="550.830078" xlink:href="#DejaVuSans-46"/>
     <use x="582.617188" xlink:href="#DejaVuSans-32"/>
     <use x="614.404297" xlink:href="#DejaVuSans-77"/>
     <use x="700.683594" xlink:href="#DejaVuSans-112"/>
     <use x="764.160156" xlink:href="#DejaVuSans-109"/>
     <use x="861.572266" xlink:href="#DejaVuSans-97"/>
     <use x="922.851562" xlink:href="#DejaVuSans-116"/>
     <use x="962.060547" xlink:href="#DejaVuSans-104"/>
    </g>
   </g>
   <g id="legend_1">
    <g id="patch_7">
     <path d="M 326.73125 68.318125 
L 397.03125 68.318125 
Q 399.03125 68.318125 399.03125 66.318125 
L 399.03125 29.318125 
Q 399.03125 27.318125 397.03125 27.318125 
L 326.73125 27.318125 
Q 324.73125 27.318125 324.73125 29.318125 
L 324.73125 66.318125 
Q 324.73125 68.318125 326.73125 68.318125 
z
" style="fill:#ffffff;opacity:0.8;stroke:#cccccc;stroke-linejoin:miter;"/>
    </g>
    <g id="line2d_27">
     <path d="M 328.73125 37.618125 
L 348.73125 37.618125 
" style="fill:none;stroke:#008000;stroke-linecap:square;stroke-width:1.5;"/>
    </g>
    <g id="line2d_28"/>
    <g id="text_16">
     <!-- $\frac{Radau}{Radau-D}$ -->
     <defs>
      <path d="M 25.203125 64.796875 
L 20.21875 38.921875 
L 32.90625 38.921875 
Q 40.375 38.921875 44.984375 43.046875 
Q 49.609375 47.171875 49.609375 53.8125 
Q 49.609375 59.125 46.5 61.953125 
Q 43.40625 64.796875 37.59375 64.796875 
z
M 43.3125 35.015625 
Q 46.4375 34.28125 48.515625 31.390625 
Q 50.59375 28.515625 53.328125 19.921875 
L 59.515625 0 
L 49.125 0 
L 43.40625 18.703125 
Q 41.21875 25.921875 38.328125 28.359375 
Q 35.453125 30.8125 29.5 30.8125 
L 18.609375 30.8125 
L 12.59375 0 
L 2.6875 0 
L 16.890625 72.90625 
L 39.109375 72.90625 
Q 49.21875 72.90625 54.609375 68.328125 
Q 60.015625 63.765625 60.015625 55.171875 
Q 60.015625 47.5625 55.421875 41.984375 
Q 50.828125 36.421875 43.3125 35.015625 
z
" id="DejaVuSans-Oblique-82"/>
      <path d="M 53.71875 31.203125 
L 47.609375 0 
L 38.625 0 
L 40.28125 8.296875 
Q 36.328125 3.421875 31.265625 1 
Q 26.21875 -1.421875 20.015625 -1.421875 
Q 13.03125 -1.421875 8.5625 2.84375 
Q 4.109375 7.125 4.109375 13.8125 
Q 4.109375 23.390625 11.75 28.953125 
Q 19.390625 34.515625 32.8125 34.515625 
L 45.3125 34.515625 
L 45.796875 36.921875 
Q 45.90625 37.3125 45.953125 37.765625 
Q 46 38.234375 46 39.203125 
Q 46 43.5625 42.453125 45.96875 
Q 38.921875 48.390625 32.515625 48.390625 
Q 28.125 48.390625 23.5 47.265625 
Q 18.890625 46.140625 14.015625 43.890625 
L 15.578125 52.203125 
Q 20.65625 54.109375 25.515625 55.046875 
Q 30.375 56 34.90625 56 
Q 44.578125 56 49.625 51.796875 
Q 54.6875 47.609375 54.6875 39.59375 
Q 54.6875 37.984375 54.4375 35.8125 
Q 54.203125 33.640625 53.71875 31.203125 
z
M 44 27.484375 
L 35.015625 27.484375 
Q 23.96875 27.484375 18.671875 24.53125 
Q 13.375 21.578125 13.375 15.375 
Q 13.375 11.078125 16.078125 8.640625 
Q 18.796875 6.203125 23.578125 6.203125 
Q 30.90625 6.203125 36.375 11.453125 
Q 41.84375 16.703125 43.609375 25.484375 
z
" id="DejaVuSans-Oblique-97"/>
      <path d="M 41.796875 8.203125 
Q 38.1875 3.46875 33.25 1.015625 
Q 28.328125 -1.421875 22.3125 -1.421875 
Q 14.109375 -1.421875 9.34375 4.171875 
Q 4.59375 9.765625 4.59375 19.484375 
Q 4.59375 27.59375 7.46875 34.9375 
Q 10.359375 42.28125 15.828125 48.09375 
Q 19.4375 51.953125 23.96875 53.96875 
Q 28.515625 56 33.5 56 
Q 38.765625 56 42.796875 53.453125 
Q 46.828125 50.921875 49.03125 46.1875 
L 54.890625 75.984375 
L 63.921875 75.984375 
L 49.125 0 
L 40.09375 0 
z
M 13.921875 21.09375 
Q 13.921875 14.015625 17.109375 10.0625 
Q 20.3125 6.109375 25.984375 6.109375 
Q 30.171875 6.109375 33.765625 8.125 
Q 37.359375 10.15625 40.09375 14.109375 
Q 42.96875 18.21875 44.625 23.578125 
Q 46.296875 28.953125 46.296875 34.1875 
Q 46.296875 40.96875 43.09375 44.765625 
Q 39.890625 48.578125 34.28125 48.578125 
Q 30.03125 48.578125 26.359375 46.578125 
Q 22.703125 44.578125 20.125 40.828125 
Q 17.28125 36.765625 15.59375 31.390625 
Q 13.921875 26.03125 13.921875 21.09375 
z
" id="DejaVuSans-Oblique-100"/>
      <path d="M 6.6875 21.6875 
L 13.09375 54.6875 
L 22.125 54.6875 
L 15.71875 22.015625 
Q 15.234375 19.625 15.015625 17.921875 
Q 14.796875 16.21875 14.796875 15.09375 
Q 14.796875 10.9375 17.328125 8.65625 
Q 19.875 6.390625 24.515625 6.390625 
Q 31.734375 6.390625 37 11.265625 
Q 42.28125 16.15625 43.890625 24.421875 
L 49.90625 54.6875 
L 58.890625 54.6875 
L 48.296875 0 
L 39.3125 0 
L 41.109375 8.59375 
Q 37.3125 3.8125 32.0625 1.1875 
Q 26.8125 -1.421875 20.90625 -1.421875 
Q 13.71875 -1.421875 9.71875 2.515625 
Q 5.71875 6.453125 5.71875 13.484375 
Q 5.71875 14.9375 5.953125 17.140625 
Q 6.203125 19.34375 6.6875 21.6875 
z
" id="DejaVuSans-Oblique-117"/>
      <path d="M 10.59375 35.5 
L 73.1875 35.5 
L 73.1875 27.203125 
L 10.59375 27.203125 
z
" id="DejaVuSans-8722"/>
      <path d="M 16.890625 72.90625 
L 38.09375 72.90625 
Q 54.984375 72.90625 63.59375 65.75 
Q 72.21875 58.59375 72.21875 44.484375 
Q 72.21875 35.15625 68.9375 26.53125 
Q 65.671875 17.921875 59.90625 12.015625 
Q 54.109375 5.953125 45.171875 2.96875 
Q 36.234375 0 24.03125 0 
L 2.6875 0 
z
M 25.203125 64.796875 
L 14.203125 8.109375 
L 27.09375 8.109375 
Q 43.65625 8.109375 52.734375 17.625 
Q 61.8125 27.15625 61.8125 44.484375 
Q 61.8125 54.984375 55.953125 59.890625 
Q 50.09375 64.796875 37.59375 64.796875 
z
" id="DejaVuSans-Oblique-68"/>
     </defs>
     <g transform="translate(356.73125 41.118125)scale(0.1 -0.1)">
      <use transform="translate(70 44.810938)scale(0.7)" xlink:href="#DejaVuSans-Oblique-82"/>
      <use transform="translate(118.637695 44.810938)scale(0.7)" xlink:href="#DejaVuSans-Oblique-97"/>
      <use transform="translate(161.533203 44.810938)scale(0.7)" xlink:href="#DejaVuSans-Oblique-100"/>
      <use transform="translate(205.966797 44.810938)scale(0.7)" xlink:href="#DejaVuSans-Oblique-97"/>
      <use transform="translate(248.862305 44.810938)scale(0.7)" xlink:href="#DejaVuSans-Oblique-117"/>
      <use transform="translate(0 -40.623437)scale(0.7)" xlink:href="#DejaVuSans-Oblique-82"/>
      <use transform="translate(48.637695 -40.623437)scale(0.7)" xlink:href="#DejaVuSans-Oblique-97"/>
      <use transform="translate(91.533203 -40.623437)scale(0.7)" xlink:href="#DejaVuSans-Oblique-100"/>
      <use transform="translate(135.966797 -40.623437)scale(0.7)" xlink:href="#DejaVuSans-Oblique-97"/>
      <use transform="translate(178.862305 -40.623437)scale(0.7)" xlink:href="#DejaVuSans-Oblique-117"/>
      <use transform="translate(236.865234 -40.623437)scale(0.7)" xlink:href="#DejaVuSans-8722"/>
      <use transform="translate(309.155273 -40.623437)scale(0.7)" xlink:href="#DejaVuSans-Oblique-68"/>
      <path d="M 0 18.815625 
L 0 25.065625 
L 363.056641 25.065625 
L 363.056641 18.815625 
L 0 18.815625 
z
"/>
     </g>
    </g>
    <g id="line2d_29">
     <path d="M 328.73125 56.618125 
L 348.73125 56.618125 
" style="fill:none;stroke:#0000ff;stroke-dasharray:5.55,2.4;stroke-dashoffset:0;stroke-width:1.5;"/>
    </g>
    <g id="line2d_30"/>
    <g id="text_17">
     <!-- $\frac{Radau}{Radau-M}$ -->
     <defs>
      <path d="M 16.890625 72.90625 
L 31.6875 72.90625 
L 40.1875 23.78125 
L 68.40625 72.90625 
L 83.59375 72.90625 
L 69.390625 0 
L 59.8125 0 
L 72.21875 63.921875 
L 43.609375 14.015625 
L 33.984375 14.015625 
L 24.703125 64.109375 
L 12.3125 0 
L 2.6875 0 
z
" id="DejaVuSans-Oblique-77"/>
     </defs>
     <g transform="translate(356.73125 60.118125)scale(0.1 -0.1)">
      <use transform="translate(73 44.810938)scale(0.7)" xlink:href="#DejaVuSans-Oblique-82"/>
      <use transform="translate(121.637695 44.810938)scale(0.7)" xlink:href="#DejaVuSans-Oblique-97"/>
      <use transform="translate(164.533203 44.810938)scale(0.7)" xlink:href="#DejaVuSans-Oblique-100"/>
      <use transform="translate(208.966797 44.810938)scale(0.7)" xlink:href="#DejaVuSans-Oblique-97"/>
      <use transform="translate(251.862305 44.810938)scale(0.7)" xlink:href="#DejaVuSans-Oblique-117"/>
      <use transform="translate(0 -40.623437)scale(0.7)" xlink:href="#DejaVuSans-Oblique-82"/>
      <use transform="translate(48.637695 -40.623437)scale(0.7)" xlink:href="#DejaVuSans-Oblique-97"/>
      <use transform="translate(91.533203 -40.623437)scale(0.7)" xlink:href="#DejaVuSans-Oblique-100"/>
      <use transform="translate(135.966797 -40.623437)scale(0.7)" xlink:href="#DejaVuSans-Oblique-97"/>
      <use transform="translate(178.862305 -40.623437)scale(0.7)" xlink:href="#DejaVuSans-Oblique-117"/>
      <use transform="translate(236.865234 -40.623437)scale(0.7)" xlink:href="#DejaVuSans-8722"/>
      <use transform="translate(309.155273 -40.623437)scale(0.7)" xlink:href="#DejaVuSans-Oblique-77"/>
      <path d="M 0 18.815625 
L 0 25.065625 
L 369.550781 25.065625 
L 369.550781 18.815625 
L 0 18.815625 
z
"/>
     </g>
    </g>
   </g>
  </g>
 </g>
 <defs>
  <clipPath id="p751924af38">
   <rect height="217.44" width="334.8" x="69.23125" y="22.318125"/>
  </clipPath>
 </defs>
</svg>
